<svg xmlns="http://www.w3.org/2000/svg" viewBox="0 0 160 100"><path d="M8 99c-3.8 0-7-3.2-7-7V8c0-3.8 3.2-7 7-7h144c3.8 0 7 3.2 7 7v84c0 3.8-3.2 7-7 7H8z" fill-rule="evenodd" clip-rule="evenodd" fill="#fff"/><path d="M1.5 84.9h156.9v8.2c0 3.2-2.6 5.8-5.8 5.8H7.4c-3.2 0-5.8-2.6-5.8-5.8v-8.2z" fill="#fcb316"/><path d="M7.4 1.3h145.2c3.2 0 5.8 2.6 5.8 5.8v8.2H1.5V7.1c0-3.2 2.6-5.8 5.9-5.8zm56.9 29.5L48.1 69.4H37.5l-8-30.8c-.5-1.9-.9-2.6-2.4-3.4-2.4-1.4-6.4-2.6-9.9-3.2l.3-1.1h17c2.2 0 4.1 1.5 4.6 3.9l4.3 22.3 10.4-26.4h10.5zm41.5 26.1c0-10.1-14.1-10.8-14.1-15.3 0-1.4 1.4-2.8 4.2-3.2 1.5-.1 5.4-.3 9.9 1.8l1.8-8.3c-2.4-.8-5.5-1.8-9.3-1.8-9.9 0-16.8 5.3-16.9 12.9 0 5.5 5 8.7 8.8 10.6 3.9 1.9 5.3 3.1 5.1 4.9 0 2.6-3.1 3.8-6 3.8-5 .1-8-1.4-10.3-2.4L77.3 68c2.3 1.1 6.6 2 11.1 2 10.4 0 17.3-5.2 17.4-13.1M132 69.4h9.2L133 30.8h-8.5c-1.9 0-3.5 1.1-4.2 2.8l-15 35.9h10.6l2-5.8h12.9l1.2 5.7zm-11.3-13.6l5.3-14.5 3 14.5h-8.3zm-42.1-25l-8.3 38.7h-10l8.3-38.7h10z" fill="#10357f"/><path d="M152 2c3.3 0 6 2.7 6 6v84c0 3.3-2.7 6-6 6H8c-3.3 0-6-2.7-6-6V8c0-3.3 2.7-6 6-6h144zm0-2H8C3.6 0 0 3.6 0 8v84c0 4.4 3.6 8 8 8h144c4.4 0 8-3.6 8-8V8c0-4.4-3.6-8-8-8z" fill="#e6e6e6"/></svg>